<?xml version="1.0" encoding="UTF-8" standalone="no"?>
<!-- Created with Inkscape (http://www.inkscape.org/) -->

<svg
   xmlns:dc="http://purl.org/dc/elements/1.1/"
   xmlns:cc="http://creativecommons.org/ns#"
   xmlns:rdf="http://www.w3.org/1999/02/22-rdf-syntax-ns#"
   xmlns:svg="http://www.w3.org/2000/svg"
   xmlns="http://www.w3.org/2000/svg"
   xmlns:sodipodi="http://sodipodi.sourceforge.net/DTD/sodipodi-0.dtd"
   xmlns:inkscape="http://www.inkscape.org/namespaces/inkscape"
   width="297mm"
   height="210mm"
   viewBox="0 0 1052.3622 744.09448"
   id="svg2"
   version="1.1"
   inkscape:version="0.91 r13725"
   sodipodi:docname="clouds.svg">
  <defs
     id="defs4" />
  <sodipodi:namedview
     id="base"
     pagecolor="#ffffff"
     bordercolor="#666666"
     borderopacity="1.0"
     inkscape:pageopacity="0.0"
     inkscape:pageshadow="2"
     inkscape:zoom="0.78471433"
     inkscape:cx="577.12369"
     inkscape:cy="425.80367"
     inkscape:document-units="px"
     inkscape:current-layer="layer1"
     showgrid="true"
     inkscape:window-width="1280"
     inkscape:window-height="751"
     inkscape:window-x="0"
     inkscape:window-y="1"
     inkscape:window-maximized="1">
    <inkscape:grid
       type="xygrid"
       id="grid4252"
       empspacing="4" />
  </sodipodi:namedview>
  <metadata
     id="metadata7">
    <rdf:RDF>
      <cc:Work
         rdf:about="">
        <dc:format>image/svg+xml</dc:format>
        <dc:type
           rdf:resource="http://purl.org/dc/dcmitype/StillImage" />
        <dc:title></dc:title>
      </cc:Work>
    </rdf:RDF>
  </metadata>
  <g
     inkscape:label="Layer 1"
     inkscape:groupmode="layer"
     id="layer1"
     transform="translate(0,-308.26772)">
    <g
       id="g4140"
       transform="translate(411.4976,-206.35573)">
      <path
         sodipodi:nodetypes="cccccccccccc"
         inkscape:connector-curvature="0"
         id="path4136"
         d="m 188.14787,614.76667 c -21.24249,-41.27114 16.994,-81.32844 52.19586,-47.34044 m -6.06929,-4.85542 c 20.02865,-40.66422 81.93537,-37.02265 84.36308,10.92471 m -6.67621,-21.2425 c 9.10393,-24.27714 76.47301,2.42773 64.33443,34.59493 m 0.60693,-9.71086 c 39.45037,3.64158 27.91873,63.72751 -4.24849,64.94137 m 15.78014,-6.06929 c 27.31179,31.56029 -30.95336,77.07992 -66.76215,30.34643 m 15.17321,13.95935 c 8.497,54.01664 -58.26515,44.3058 -63.12058,12.13859"
         style="fill:none;fill-rule:evenodd;stroke:#000000;stroke-width:1px;stroke-linecap:butt;stroke-linejoin:miter;stroke-opacity:1" />
      <path
         sodipodi:nodetypes="cccccc"
         inkscape:connector-curvature="0"
         id="path4138"
         d="m 274.93868,697.91588 c -5.46236,14.56629 -38.84346,15.17323 -51.58896,-10.92471 m 5.46237,6.67622 c -2.42771,16.38707 -43.69885,-1.82078 -43.09192,-40.05728 m 0.60692,8.49699 c -18.20786,-1.21386 -26.09794,-46.73351 7.89007,-48.55429"
         style="fill:none;fill-rule:evenodd;stroke:#000000;stroke-width:1px;stroke-linecap:butt;stroke-linejoin:miter;stroke-opacity:1" />
    </g>
    <g
       id="g4144"
       transform="matrix(0.5,0,0,0.5,148.62482,111.82196)"
       style="stroke-width:2;stroke-miterlimit:4;stroke-dasharray:none">
      <path
         style="fill:none;fill-rule:evenodd;stroke:#000000;stroke-width:2;stroke-linecap:butt;stroke-linejoin:miter;stroke-miterlimit:4;stroke-dasharray:none;stroke-opacity:1"
         d="m 188.14787,614.76667 c -21.24249,-41.27114 16.994,-81.32844 52.19586,-47.34044 m -6.06929,-4.85542 c 20.02865,-40.66422 81.93537,-37.02265 84.36308,10.92471 m -6.67621,-21.2425 c 9.10393,-24.27714 76.47301,2.42773 64.33443,34.59493 m 0.60693,-9.71086 c 39.45037,3.64158 27.91873,63.72751 -4.24849,64.94137 m 15.78014,-6.06929 c 27.31179,31.56029 -30.95336,77.07992 -66.76215,30.34643 m 15.17321,13.95935 c 8.497,54.01664 -58.26515,44.3058 -63.12058,12.13859"
         id="path4146"
         inkscape:connector-curvature="0"
         sodipodi:nodetypes="cccccccccccc" />
      <path
         style="fill:none;fill-rule:evenodd;stroke:#000000;stroke-width:2;stroke-linecap:butt;stroke-linejoin:miter;stroke-miterlimit:4;stroke-dasharray:none;stroke-opacity:1"
         d="m 274.93868,697.91588 c -5.46236,14.56629 -38.84346,15.17323 -51.58896,-10.92471 m 5.46237,6.67622 c -2.42771,16.38707 -43.69885,-1.82078 -43.09192,-40.05728 m 0.60692,8.49699 c -18.20786,-1.21386 -26.09794,-46.73351 7.89007,-48.55429"
         id="path4148"
         inkscape:connector-curvature="0"
         sodipodi:nodetypes="cccccc" />
    </g>
    <g
       id="g4150"
       transform="matrix(2,0,0,2,222.88819,-410.57792)"
       style="stroke-width:0.5;stroke-miterlimit:4;stroke-dasharray:none">
      <path
         style="fill:none;fill-rule:evenodd;stroke:#000000;stroke-width:0.5;stroke-linecap:butt;stroke-linejoin:miter;stroke-miterlimit:4;stroke-dasharray:none;stroke-opacity:1"
         d="m 188.14787,614.76667 c -21.24249,-41.27114 16.994,-81.32844 52.19586,-47.34044 m -6.06929,-4.85542 c 20.02865,-40.66422 81.93537,-37.02265 84.36308,10.92471 m -6.67621,-21.2425 c 9.10393,-24.27714 76.47301,2.42773 64.33443,34.59493 m 0.60693,-9.71086 c 39.45037,3.64158 27.91873,63.72751 -4.24849,64.94137 m 15.78014,-6.06929 c 27.31179,31.56029 -30.95336,77.07992 -66.76215,30.34643 m 15.17321,13.95935 c 8.497,54.01664 -58.26515,44.3058 -63.12058,12.13859"
         id="path4152"
         inkscape:connector-curvature="0"
         sodipodi:nodetypes="cccccccccccc" />
      <path
         style="fill:none;fill-rule:evenodd;stroke:#000000;stroke-width:0.5;stroke-linecap:butt;stroke-linejoin:miter;stroke-miterlimit:4;stroke-dasharray:none;stroke-opacity:1"
         d="m 274.93868,697.91588 c -5.46236,14.56629 -38.84346,15.17323 -51.58896,-10.92471 m 5.46237,6.67622 c -2.42771,16.38707 -43.69885,-1.82078 -43.09192,-40.05728 m 0.60692,8.49699 c -18.20786,-1.21386 -26.09794,-46.73351 7.89007,-48.55429"
         id="path4154"
         inkscape:connector-curvature="0"
         sodipodi:nodetypes="cccccc" />
    </g>
    <g
       transform="matrix(1.5,0,0,1.5,-128.59617,-92.400234)"
       id="g4156"
       style="stroke-width:0.66666669;stroke-miterlimit:4;stroke-dasharray:none">
      <path
         style="fill:none;fill-rule:evenodd;stroke:#000000;stroke-width:0.66666669;stroke-linecap:butt;stroke-linejoin:miter;stroke-miterlimit:4;stroke-dasharray:none;stroke-opacity:1"
         d="m 188.14787,614.76667 c -21.24249,-41.27114 16.994,-81.32844 52.19586,-47.34044 m -6.06929,-4.85542 c 20.02865,-40.66422 81.93537,-37.02265 84.36308,10.92471 m -6.67621,-21.2425 c 9.10393,-24.27714 76.47301,2.42773 64.33443,34.59493 m 0.60693,-9.71086 c 39.45037,3.64158 27.91873,63.72751 -4.24849,64.94137 m 15.78014,-6.06929 c 27.31179,31.56029 -30.95336,77.07992 -66.76215,30.34643 m 15.17321,13.95935 c 8.497,54.01664 -58.26515,44.3058 -63.12058,12.13859"
         id="path4158"
         inkscape:connector-curvature="0"
         sodipodi:nodetypes="cccccccccccc" />
      <path
         style="fill:none;fill-rule:evenodd;stroke:#000000;stroke-width:0.66666669;stroke-linecap:butt;stroke-linejoin:miter;stroke-miterlimit:4;stroke-dasharray:none;stroke-opacity:1"
         d="m 274.93868,697.91588 c -5.46236,14.56629 -38.84346,15.17323 -51.58896,-10.92471 m 5.46237,6.67622 c -2.42771,16.38707 -43.69885,-1.82078 -43.09192,-40.05728 m 0.60692,8.49699 c -18.20786,-1.21386 -26.09794,-46.73351 7.89007,-48.55429"
         id="path4160"
         inkscape:connector-curvature="0"
         sodipodi:nodetypes="cccccc" />
    </g>
    <g
       transform="matrix(0.75,0,0,0.75,256.69446,-50.90846)"
       id="g4162"
       style="stroke-width:1.33333337;stroke-miterlimit:4;stroke-dasharray:none">
      <path
         style="fill:none;fill-rule:evenodd;stroke:#000000;stroke-width:1.33333337;stroke-linecap:butt;stroke-linejoin:miter;stroke-miterlimit:4;stroke-dasharray:none;stroke-opacity:1"
         d="m 188.14787,614.76667 c -21.24249,-41.27114 16.994,-81.32844 52.19586,-47.34044 m -6.06929,-4.85542 c 20.02865,-40.66422 81.93537,-37.02265 84.36308,10.92471 m -6.67621,-21.2425 c 9.10393,-24.27714 76.47301,2.42773 64.33443,34.59493 m 0.60693,-9.71086 c 39.45037,3.64158 27.91873,63.72751 -4.24849,64.94137 m 15.78014,-6.06929 c 27.31179,31.56029 -30.95336,77.07992 -66.76215,30.34643 m 15.17321,13.95935 c 8.497,54.01664 -58.26515,44.3058 -63.12058,12.13859"
         id="path4164"
         inkscape:connector-curvature="0"
         sodipodi:nodetypes="cccccccccccc" />
      <path
         style="fill:none;fill-rule:evenodd;stroke:#000000;stroke-width:1.33333337;stroke-linecap:butt;stroke-linejoin:miter;stroke-miterlimit:4;stroke-dasharray:none;stroke-opacity:1"
         d="m 274.93868,697.91588 c -5.46236,14.56629 -38.84346,15.17323 -51.58896,-10.92471 m 5.46237,6.67622 c -2.42771,16.38707 -43.69885,-1.82078 -43.09192,-40.05728 m 0.60692,8.49699 c -18.20786,-1.21386 -26.09794,-46.73351 7.89007,-48.55429"
         id="path4166"
         inkscape:connector-curvature="0"
         sodipodi:nodetypes="cccccc" />
    </g>
    <g
       transform="matrix(0.25,0,0,0.25,95.785679,272.12465)"
       id="g4168"
       style="stroke-width:4;stroke-miterlimit:4;stroke-dasharray:none">
      <path
         style="fill:none;fill-rule:evenodd;stroke:#000000;stroke-width:4;stroke-linecap:butt;stroke-linejoin:miter;stroke-opacity:1;stroke-miterlimit:4;stroke-dasharray:none"
         d="m 188.14787,614.76667 c -21.24249,-41.27114 16.994,-81.32844 52.19586,-47.34044 m -6.06929,-4.85542 c 20.02865,-40.66422 81.93537,-37.02265 84.36308,10.92471 m -6.67621,-21.2425 c 9.10393,-24.27714 76.47301,2.42773 64.33443,34.59493 m 0.60693,-9.71086 c 39.45037,3.64158 27.91873,63.72751 -4.24849,64.94137 m 15.78014,-6.06929 c 27.31179,31.56029 -30.95336,77.07992 -66.76215,30.34643 m 15.17321,13.95935 c 8.497,54.01664 -58.26515,44.3058 -63.12058,12.13859"
         id="path4170"
         inkscape:connector-curvature="0"
         sodipodi:nodetypes="cccccccccccc" />
      <path
         style="fill:none;fill-rule:evenodd;stroke:#000000;stroke-width:4;stroke-linecap:butt;stroke-linejoin:miter;stroke-opacity:1;stroke-miterlimit:4;stroke-dasharray:none"
         d="m 274.93868,697.91588 c -5.46236,14.56629 -38.84346,15.17323 -51.58896,-10.92471 m 5.46237,6.67622 c -2.42771,16.38707 -43.69885,-1.82078 -43.09192,-40.05728 m 0.60692,8.49699 c -18.20786,-1.21386 -26.09794,-46.73351 7.89007,-48.55429"
         id="path4172"
         inkscape:connector-curvature="0"
         sodipodi:nodetypes="cccccc" />
    </g>
  </g>
</svg>
